<svg width="512" height="512" viewBox="0 0 512 512" fill="none" xmlns="http://www.w3.org/2000/svg">
<path d="M337.921 246C343.444 246 347.921 241.523 347.921 236C347.921 230.477 343.444 226 337.921 226C332.398 226 327.921 230.477 327.921 236C327.921 241.523 332.398 246 337.921 246Z" fill="#5A5A5A"/>
<path d="M339.637 278.848C334.178 278.037 329.089 281.812 328.28 287.275C325.547 305.73 309.947 321.036 286.551 328.22C261.544 335.899 226.833 333.325 205.658 310.266C201.922 306.198 195.596 305.93 191.529 309.664C187.461 313.4 187.192 319.726 190.927 323.793C203.185 337.142 219.834 346.24 239.074 350.103C245.868 351.467 252.916 352.144 260.01 352.144C270.968 352.144 282.034 350.529 292.422 347.339C323.372 337.836 344.173 316.478 348.064 290.205C348.873 284.742 345.1 279.657 339.637 278.848Z" fill="#5A5A5A"/>
<path d="M478.626 190.411C460.45 169.34 435.364 155.678 405.168 150.191C434.078 130.681 459.014 111.265 476.794 94.323C503.903 68.492 512.993 50.34 505.403 37.201C496.957 22.567 472.576 22.668 428.67 37.522C391.573 50.072 345.359 71.869 298.543 98.899C290.456 103.567 282.445 108.347 274.607 113.164C268.794 96.747 272.628 77.994 285.454 61.733C295.061 49.553 297.206 34.083 291.053 21.358C284.603 8.021 270.447 0.036 253.162 0H252.692C191.686 0 132.015 24.071 84.6719 67.779C37.2699 111.541 8.24992 169.473 2.95792 230.902C-3.40908 304.882 20.2389 375.216 69.5439 428.947C117.978 481.729 186.643 512 257.932 512C296.312 512 332.342 504.978 365.019 491.127C394.899 478.462 421.433 460.378 443.885 437.375C464.702 416.046 481.115 391.493 492.668 364.396C503.662 338.612 509.668 311.288 510.04 285.379C510.581 247.701 499.718 214.862 478.626 190.411ZM275.776 135.988C286.36 129.313 297.383 122.662 308.542 116.22C351.828 91.228 394.932 70.643 429.915 58.256C468.425 44.621 484.192 45.511 487.868 47.271C487.55 49.598 484.66 59.951 459.389 83.223C438.287 102.656 407.472 125.509 372.621 147.572C361.604 154.549 350.138 161.483 338.543 168.179C322.558 177.405 306.585 186.032 290.908 193.931C287.78 184.802 283.771 175.943 278.892 167.491C274.163 159.3 268.678 151.61 262.547 144.495C266.886 141.651 271.301 138.807 275.776 135.988ZM272.79 202.802C244.553 216.193 218.643 226.402 197.952 232.324C196.875 227.151 194.981 222.151 192.294 217.493C189.747 213.078 186.552 209.131 182.859 205.727C198.349 190.778 220.151 173.458 245.823 155.739C251.783 162.4 257.067 169.686 261.572 177.489C266.231 185.559 269.981 194.047 272.79 202.802ZM490.042 285.092C488.616 384.6 399.469 492 257.932 492C192.23 492 128.937 464.09 84.2809 415.426C38.8079 365.872 17.0049 300.949 22.8849 232.618C32.9839 115.38 136.075 20 252.692 20H253.141C262.708 20.02 269.964 23.688 273.047 30.065C275.882 35.927 274.65 43.135 269.75 49.347C251.727 72.197 247.207 100.3 257.39 123.995C252.029 127.449 246.76 130.918 241.669 134.359C241.645 134.375 241.621 134.391 241.598 134.407C209.799 155.864 182.947 177.207 165.081 195.168C151.531 190.537 136.643 191.887 123.989 199.191C103.213 211.192 75.9329 267.117 70.6759 278.206C69.2679 281.174 69.4089 284.645 71.0509 287.49C72.6939 290.335 75.6289 292.192 78.9029 292.458C84.4299 292.906 100.125 294.038 117.594 294.038C138.792 294.038 162.6 292.37 173.99 285.791C186.328 278.669 194.88 266.769 197.842 253.089C222.365 246.652 254.406 234.059 289.108 217.152C308.551 207.689 328.547 197.04 348.543 185.5C358.686 179.642 368.714 173.603 378.46 167.512C378.519 167.515 378.576 167.524 378.635 167.526C461.984 169.916 490.835 229.824 490.042 285.092ZM178.942 244.37C178.302 254.427 172.714 263.435 163.99 268.471C154.533 273.934 122.045 274.67 95.3699 273.45C107.645 249.746 124.524 221.98 133.991 216.512C142.929 211.352 153.735 211.126 162.903 215.909C167.942 218.533 172.114 222.536 174.97 227.487C177.941 232.637 179.314 238.475 178.942 244.37Z" fill="#5A5A5A"/>
<path d="M177.922 61.84C155.866 61.84 137.922 79.784 137.922 101.84C137.922 123.896 155.866 141.84 177.922 141.84C199.978 141.84 217.922 123.896 217.922 101.84C217.922 79.784 199.978 61.84 177.922 61.84ZM177.922 121.84C166.894 121.84 157.922 112.868 157.922 101.84C157.922 90.812 166.894 81.84 177.922 81.84C188.95 81.84 197.922 90.812 197.922 101.84C197.922 112.868 188.95 121.84 177.922 121.84Z" fill="#5A5A5A"/>
<path d="M127.922 330.55C105.866 330.55 87.9219 348.494 87.9219 370.55C87.9219 392.606 105.866 410.55 127.922 410.55C149.978 410.55 167.922 392.606 167.922 370.55C167.922 348.494 149.978 330.55 127.922 330.55ZM127.922 390.55C116.894 390.55 107.922 381.578 107.922 370.55C107.922 359.522 116.894 350.55 127.922 350.55C138.95 350.55 147.922 359.522 147.922 370.55C147.922 381.578 138.95 390.55 127.922 390.55Z" fill="#5A5A5A"/>
<path d="M227.922 390.55C205.866 390.55 187.922 408.494 187.922 430.55C187.922 452.606 205.866 470.55 227.922 470.55C249.978 470.55 267.922 452.606 267.922 430.55C267.922 408.494 249.978 390.55 227.922 390.55ZM227.922 450.55C216.894 450.55 207.922 441.578 207.922 430.55C207.922 419.522 216.894 410.55 227.922 410.55C238.95 410.55 247.922 419.522 247.922 430.55C247.922 441.578 238.95 450.55 227.922 450.55Z" fill="#5A5A5A"/>
<path d="M347.922 370.55C325.866 370.55 307.922 388.494 307.922 410.55C307.922 432.606 325.866 450.55 347.922 450.55C369.978 450.55 387.922 432.606 387.922 410.55C387.922 388.494 369.978 370.55 347.922 370.55ZM347.922 430.55C336.894 430.55 327.922 421.578 327.922 410.55C327.922 399.522 336.894 390.55 347.922 390.55C358.95 390.55 367.922 399.522 367.922 410.55C367.922 421.578 358.95 430.55 347.922 430.55Z" fill="#5A5A5A"/>
<path d="M427.922 270.55C405.866 270.55 387.922 288.494 387.922 310.55C387.922 332.606 405.866 350.55 427.922 350.55C449.978 350.55 467.922 332.606 467.922 310.55C467.922 288.494 449.978 270.55 427.922 270.55ZM427.922 330.55C416.894 330.55 407.922 321.578 407.922 310.55C407.922 299.522 416.894 290.55 427.922 290.55C438.95 290.55 447.922 299.522 447.922 310.55C447.922 321.578 438.95 330.55 427.922 330.55Z" fill="#5A5A5A"/>
</svg>
