<svg width="491" height="491" viewBox="0 0 491 491" fill="none" xmlns="http://www.w3.org/2000/svg">
<g clip-path="url(#clip0)">
<path d="M170.563 490.667C164.675 490.667 159.896 485.888 159.896 480V53.333C159.896 47.445 164.675 42.666 170.563 42.666C176.451 42.666 181.23 47.445 181.23 53.333V480C181.23 485.888 176.451 490.667 170.563 490.667Z" fill="#F44336"/>
<path d="M319.896 448C314.008 448 309.229 443.221 309.229 437.333V10.667C309.23 4.779 314.008 0 319.896 0C325.784 0 330.563 4.779 330.563 10.667V437.334C330.563 443.221 325.784 448 319.896 448Z" fill="#F44336"/>
<path d="M42.563 405.333C36.675 405.333 31.896 400.554 31.896 394.666C31.896 390.207 34.669 386.218 38.872 384.661L444.205 235.328C449.688 233.173 455.874 235.883 458.029 241.365C460.184 246.847 457.474 253.034 451.992 255.189C451.843 255.253 451.715 255.296 451.565 255.338L46.232 404.672C45.08 405.12 43.822 405.333 42.563 405.333Z" fill="#F44336"/>
<path d="M42.563 256C36.675 256 31.896 251.221 31.896 245.333C31.896 240.874 34.669 236.885 38.872 235.328L444.206 85.995C449.689 83.84 455.875 86.55 458.03 92.032C460.185 97.514 457.475 103.701 451.993 105.856C451.844 105.92 451.716 105.963 451.566 106.005L46.232 255.339C45.08 255.787 43.822 256 42.563 256Z" fill="#F44336"/>
<path d="M170.563 490.667C164.675 490.667 159.896 485.888 159.896 480V53.333C159.896 47.445 164.675 42.666 170.563 42.666C176.451 42.666 181.23 47.445 181.23 53.333V480C181.23 485.888 176.451 490.667 170.563 490.667Z" fill="#5A5A5A"/>
<path d="M319.896 448C314.008 448 309.229 443.221 309.229 437.333V10.667C309.23 4.779 314.008 0 319.896 0C325.784 0 330.563 4.779 330.563 10.667V437.334C330.563 443.221 325.784 448 319.896 448Z" fill="#5A5A5A"/>
<path d="M42.5632 405.333C38.2112 405.333 34.1362 402.666 32.5582 398.357C30.5312 392.832 33.3472 386.688 38.8732 384.661L444.206 235.328C449.646 233.301 455.854 236.117 457.902 241.643C459.95 247.168 457.113 253.291 451.587 255.339L46.2542 404.672C45.0382 405.12 43.8002 405.333 42.5632 405.333Z" fill="#5A5A5A"/>
<path d="M42.5632 256C38.2112 256 34.1362 253.333 32.5582 249.024C30.5312 243.499 33.3472 237.376 38.8732 235.328L444.206 85.995C449.646 83.947 455.854 86.784 457.902 92.31C459.95 97.835 457.113 103.958 451.587 106.006L46.2542 255.339C45.0382 255.787 43.8002 256 42.5632 256Z" fill="#5A5A5A"/>
</g>
<defs>
<clipPath id="clip0">
<rect width="490.667" height="490.667" fill="white"/>
</clipPath>
</defs>
</svg>
