<svg width="512" height="512" viewBox="0 0 512 512" fill="none" xmlns="http://www.w3.org/2000/svg">
<path d="M472 432H453.6L319.2 61.6C319.2 60.8 318.4 60 318.4 60C318.4 60 318.4 59.2 317.6 59.2V58.4C316.8 57.6 316 56.8 315.2 56.8C315.2 56.8 313.6 56 312.8 56H200C196.8 56 193.6 58.4 192.8 61.6L58.4 432H40C35.2 432 32 435.2 32 440C32 444.8 35.2 448 40 448H208C212.8 448 216 444.8 216 440C216 435.2 212.8 432 208 432H187.2L228 320H356L396.8 432H376C371.2 432 368 435.2 368 440C368 444.8 371.2 448 376 448H472C476.8 448 480 444.8 480 440C480 435.2 476.8 432 472 432ZM170.4 432H75.2L205.6 72H300.8L170.4 432ZM233.6 304L292 143.2L350.4 304H233.6ZM413.6 432L300.8 119.2L312 87.2L436.8 432H413.6Z" fill="#5A5A5A"/>
<path d="M80 496H64V512H80V496Z" fill="#5A5A5A"/>
<path d="M144 408H128V424H144V408Z" fill="#5A5A5A"/>
<path d="M16 496H0V512H16V496Z" fill="#5A5A5A"/>
<path d="M48 496H32V512H48V496Z" fill="#5A5A5A"/>
<path d="M16 464H0V480H16V464Z" fill="#5A5A5A"/>
<path d="M512 496H496V512H512V496Z" fill="#5A5A5A"/>
<path d="M512 464H496V480H512V464Z" fill="#5A5A5A"/>
<path d="M448 496H432V512H448V496Z" fill="#5A5A5A"/>
<path d="M480 496H464V512H480V496Z" fill="#5A5A5A"/>
<path d="M112 408H96V424H112V408Z" fill="#5A5A5A"/>
<path d="M512 0H496V16H512V0Z" fill="#5A5A5A"/>
<path d="M512 32H496V48H512V32Z" fill="#5A5A5A"/>
<path d="M480 0H464V16H480V0Z" fill="#5A5A5A"/>
<path d="M448 0H432V16H448V0Z" fill="#5A5A5A"/>
<path d="M16 0H0V16H16V0Z" fill="#5A5A5A"/>
<path d="M48 0H32V16H48V0Z" fill="#5A5A5A"/>
<path d="M16 32H0V48H16V32Z" fill="#5A5A5A"/>
<path d="M80 0H64V16H80V0Z" fill="#5A5A5A"/>
</svg>
