<svg width="362" height="421" viewBox="0 0 362 421" fill="none" xmlns="http://www.w3.org/2000/svg">
<path d="M331.546 0H57.43C40.953 0 27.548 13.405 27.548 29.882V47.992H8.401C4.259 47.992 0.901001 51.35 0.901001 55.492C0.901001 59.634 4.259 62.992 8.401 62.992H27.548V125.328H8.401C4.259 125.328 0.901001 128.686 0.901001 132.828C0.901001 136.97 4.259 140.328 8.401 140.328H27.548V202.664H8.401C4.259 202.664 0.901001 206.022 0.901001 210.164C0.901001 214.306 4.259 217.664 8.401 217.664H27.548V280H8.401C4.259 280 0.901001 283.358 0.901001 287.5C0.901001 291.642 4.259 295 8.401 295H27.548V357.336H8.401C4.259 357.336 0.901001 360.694 0.901001 364.836C0.901001 368.978 4.259 372.336 8.401 372.336H27.548V390.446C27.548 406.923 40.953 420.328 57.43 420.328H331.546C348.023 420.328 361.428 406.923 361.428 390.446V29.882C361.428 13.405 348.023 0 331.546 0ZM291.602 176.534H346.428V242.3H291.602V176.534ZM291.602 161.534V95.767H346.428V161.534H291.602ZM291.602 257.3H346.428V323.067H291.602V257.3ZM42.548 390.447V372.337H58.181C62.323 372.337 65.681 368.979 65.681 364.837C65.681 360.695 62.323 357.337 58.181 357.337H42.548V295.001H58.181C62.323 295.001 65.681 291.643 65.681 287.501C65.681 283.359 62.323 280.001 58.181 280.001H42.548V217.665H58.181C62.323 217.665 65.681 214.307 65.681 210.165C65.681 206.023 62.323 202.665 58.181 202.665H42.548V140.329H58.181C62.323 140.329 65.681 136.971 65.681 132.829C65.681 128.687 62.323 125.329 58.181 125.329H42.548V62.992H58.181C62.323 62.992 65.681 59.634 65.681 55.492C65.681 51.35 62.323 47.992 58.181 47.992H42.548V29.882C42.548 21.676 49.224 15 57.43 15H331.546C339.752 15 346.428 21.676 346.428 29.882V80.767H284.102C279.96 80.767 276.602 84.125 276.602 88.267V405.33H57.43C49.224 405.329 42.548 398.653 42.548 390.447ZM331.546 405.329H291.602V338.067H346.428V390.447C346.428 398.653 339.752 405.329 331.546 405.329Z" fill="#D5622C"/>
<path d="M102.771 87.8879H234.325C238.467 87.8879 241.825 84.5299 241.825 80.3879C241.825 76.2459 238.467 72.8879 234.325 72.8879H102.771C98.629 72.8879 95.271 76.2459 95.271 80.3879C95.271 84.5299 98.629 87.8879 102.771 87.8879Z" fill="#D5622C"/>
<path d="M234.325 111.491H102.771C98.629 111.491 95.271 114.849 95.271 118.991C95.271 123.133 98.629 126.491 102.771 126.491H234.325C238.467 126.491 241.825 123.133 241.825 118.991C241.825 114.849 238.467 111.491 234.325 111.491Z" fill="#D5622C"/>
<path d="M234.325 150.094H102.771C98.629 150.094 95.271 153.452 95.271 157.594C95.271 161.736 98.629 165.094 102.771 165.094H234.325C238.467 165.094 241.825 161.736 241.825 157.594C241.825 153.452 238.467 150.094 234.325 150.094Z" fill="#D5622C"/>
<path d="M234.325 188.696H102.771C98.629 188.696 95.271 192.054 95.271 196.196C95.271 200.338 98.629 203.696 102.771 203.696H234.325C238.467 203.696 241.825 200.338 241.825 196.196C241.825 192.054 238.467 188.696 234.325 188.696Z" fill="#D5622C"/>
<path d="M234.325 227.299H102.771C98.629 227.299 95.271 230.657 95.271 234.799C95.271 238.941 98.629 242.299 102.771 242.299H234.325C238.467 242.299 241.825 238.941 241.825 234.799C241.825 230.657 238.467 227.299 234.325 227.299Z" fill="#D5622C"/>
<path d="M234.325 265.902H102.771C98.629 265.902 95.271 269.26 95.271 273.402C95.271 277.544 98.629 280.902 102.771 280.902H234.325C238.467 280.902 241.825 277.544 241.825 273.402C241.825 269.26 238.467 265.902 234.325 265.902Z" fill="#D5622C"/>
<path d="M234.325 343.107H102.771C98.629 343.107 95.271 346.465 95.271 350.607C95.271 354.749 98.629 358.107 102.771 358.107H234.325C238.467 358.107 241.825 354.749 241.825 350.607C241.825 346.465 238.467 343.107 234.325 343.107Z" fill="#D5622C"/>
<path d="M234.325 304.505H102.771C98.629 304.505 95.271 307.863 95.271 312.005C95.271 316.147 98.629 319.505 102.771 319.505H234.325C238.467 319.505 241.825 316.147 241.825 312.005C241.825 307.863 238.467 304.505 234.325 304.505Z" fill="#D5622C"/>
<path d="M312.088 50.7529C313.305 53.6379 316.24 55.5339 319.385 55.3739C322.383 55.2209 325.061 53.2349 326.071 50.4109C327.109 47.5089 326.225 44.1859 323.883 42.1819C321.415 40.0689 317.75 39.8159 315.004 41.5459C311.974 43.4549 310.691 47.4429 312.088 50.7529Z" fill="#D5622C"/>
<path d="M324.318 123.724C319.556 118.962 311.211 122.713 311.527 129.391C311.682 132.657 314.028 135.497 317.19 136.295C320.225 137.061 323.52 135.791 325.248 133.183C327.196 130.241 326.832 126.22 324.318 123.724C325.718 125.113 323.968 123.374 324.318 123.724Z" fill="#D5622C"/>
<path d="M326.367 289.843C325.738 286.826 323.342 284.457 320.296 283.921C317.213 283.378 314.031 284.89 312.492 287.61C310.86 290.493 311.343 294.27 313.707 296.613C315.88 298.766 319.223 299.394 322.023 298.169C325.187 296.786 327.077 293.247 326.367 289.843Z" fill="#D5622C"/>
<path d="M326.367 208.704C325.357 203.862 319.89 201.214 315.482 203.555C311.072 205.898 310.268 211.936 313.707 215.474C316.099 217.799 319.785 218.338 322.706 216.689C325.472 215.127 327.019 211.83 326.367 208.704Z" fill="#D5622C"/>
<path d="M325.938 369.573C324.804 366.742 321.865 364.871 318.832 364.948C315.697 365.027 312.879 367.119 311.897 370.096C309.711 376.722 317.367 382.556 323.178 378.684C326.122 376.721 327.285 372.839 325.938 369.573C326.128 370.034 325.758 369.124 325.938 369.573Z" fill="#D5622C"/>
</svg>
