<svg width="513" height="512" viewBox="0 0 513 512" fill="none" xmlns="http://www.w3.org/2000/svg">
<path d="M507.607 401.54C499.958 393.891 370.223 264.157 362.066 256.001L498.692 119.373C516.269 101.796 516.364 73.4035 498.762 55.8045L456.19 13.2345C438.686 -4.2705 410.191 -4.2605 392.673 13.2585L256 149.934C252.876 146.81 122.349 16.2825 110.46 4.3935C104.603 -1.4645 95.1053 -1.4645 89.2473 4.3935L4.39432 89.2455C-1.46368 95.1035 -1.46368 104.6 4.39432 110.458L149.935 255.999L47.8213 358.114C46.1753 359.761 44.9333 361.768 44.1973 363.977L0.770321 492.257C-1.02668 497.647 0.376321 503.59 4.39432 507.607C8.41832 511.63 14.3623 513.024 19.7443 511.23L148.023 467.803C150.232 467.067 152.24 465.827 153.886 464.18L256 362.066L401.541 507.607C407.394 513.461 416.898 513.464 422.754 507.607L507.607 422.754C513.466 416.896 513.466 407.398 507.607 401.54ZM413.886 34.4715C419.707 28.6515 429.167 28.6385 434.977 34.4485L477.551 77.0195C483.4 82.8685 483.356 92.2835 477.48 98.1605L456.265 119.375L392.625 55.7355L392.624 55.7345L413.886 34.4715ZM371.411 76.9475L435.052 140.589L413.839 161.801L350.199 98.1615L350.198 98.1605L371.411 76.9475ZM36.2143 99.8525L99.8543 36.2125L142.28 78.6395L131.674 89.2465C125.816 95.1045 125.816 104.601 131.674 110.459C137.531 116.317 147.029 116.317 152.887 110.459L163.493 99.8525L184.707 121.066L174.1 131.673C168.242 137.531 168.242 147.027 174.1 152.885C179.957 158.743 189.455 158.743 195.313 152.885L205.919 142.279L234.786 171.145L171.147 234.785L36.2143 99.8525ZM328.984 119.373L328.985 119.374L350.198 140.587L100.853 389.934L79.6403 368.721C87.9773 360.384 316.732 131.626 328.984 119.373ZM38.7183 473.283L64.9833 396.489C69.5273 401.033 106.34 437.846 115.512 447.018L38.7183 473.283ZM143.28 432.361L122.067 411.148L371.412 161.801L392.626 183.016C386.718 188.923 146.013 429.628 143.28 432.361ZM412.148 475.786L277.214 340.853L340.853 277.213L369.721 306.081L359.115 316.688C353.257 322.545 353.257 332.043 359.115 337.901C364.972 343.759 374.47 343.759 380.328 337.901L390.934 327.294L412.148 348.508L401.542 359.115C395.684 364.973 395.684 374.47 401.542 380.328C407.399 386.186 416.897 386.186 422.755 380.328L433.361 369.721L475.788 412.148L412.148 475.786Z" fill="#D5622C"/>
</svg>
