<svg width="512" height="512" viewBox="0 0 512 512" fill="none" xmlns="http://www.w3.org/2000/svg">
<path d="M400 384H432C434.122 384 436.157 383.157 437.657 381.657C439.157 380.157 440 378.122 440 376C440 373.878 439.157 371.843 437.657 370.343C436.157 368.843 434.122 368 432 368H400C397.878 368 395.843 368.843 394.343 370.343C392.843 371.843 392 373.878 392 376C392 378.122 392.843 380.157 394.343 381.657C395.843 383.157 397.878 384 400 384Z" fill="#D5622C"/>
<path d="M440 400H393C390.878 400 388.843 400.843 387.343 402.343C385.843 403.843 385 405.878 385 408C385 410.122 385.843 412.157 387.343 413.657C388.843 415.157 390.878 416 393 416H440C442.122 416 444.157 415.157 445.657 413.657C447.157 412.157 448 410.122 448 408C448 405.878 447.157 403.843 445.657 402.343C444.157 400.843 442.122 400 440 400Z" fill="#D5622C"/>
<path d="M480 433.376V344C480 341.878 479.157 339.843 477.657 338.343C476.157 336.843 474.122 336 472 336H368V328C367.988 317.395 363.77 307.228 356.271 299.729C348.772 292.23 338.605 288.012 328 288H265.631C284.531 276.606 299.673 259.916 309.179 240H312C322.605 239.988 332.772 235.77 340.271 228.271C347.77 220.772 351.988 210.605 352 200V160C352 80.6 287.4 16 208 16C128.6 16 64 80.6 64 160V200C64.0119 210.605 68.23 220.772 75.7289 228.271C83.2278 235.77 93.395 239.988 104 240H106.821C116.327 259.916 131.469 276.606 150.369 288H88C79.728 288.01 71.662 290.581 64.9095 295.359C58.157 300.137 53.049 306.889 50.287 314.686L31.155 276.422H31.149C30.6795 275.483 30.0297 274.646 29.2367 273.958C28.4436 273.27 27.5228 272.745 26.5269 272.413C25.531 272.081 24.4795 271.949 23.4323 272.023C22.3852 272.098 21.363 272.378 20.424 272.847C19.4851 273.316 18.6478 273.966 17.96 274.759C17.2721 275.552 16.7473 276.473 16.4153 277.469C16.0833 278.465 15.9508 279.517 16.0252 280.564C16.0996 281.611 16.3795 282.633 16.849 283.572H16.843L48 345.888V488C48 490.122 48.8429 492.157 50.3432 493.657C51.8434 495.157 53.8783 496 56 496H472C478.363 495.993 484.463 493.462 488.963 488.963C493.462 484.463 495.993 478.363 496 472V456C495.994 451.039 494.452 446.201 491.588 442.151C488.723 438.1 484.676 435.035 480 433.376V433.376ZM352 328V336H272V304H328C334.363 304.007 340.463 306.538 344.963 311.037C349.462 315.537 351.993 321.637 352 328V328ZM240 344V480H216V318L242.7 338.022C241.852 338.77 241.172 339.69 240.707 340.721C240.241 341.751 240 342.869 240 344V344ZM160 304H192L160 328V304ZM224 304H256V328L224 304ZM315.408 223.754C318.459 213.446 320.006 202.751 320 192V177.376C325.058 179.167 329.37 182.602 332.247 187.132C335.123 191.661 336.399 197.024 335.871 202.364C335.342 207.703 333.039 212.712 329.33 216.589C325.621 220.467 320.719 222.989 315.408 223.754V223.754ZM208 32C241.936 32.0384 274.471 45.5364 298.467 69.5327C322.464 93.5291 335.962 126.064 336 160V168.022C331.269 164.457 325.804 161.991 320 160.805V160C319.976 138.79 311.54 118.456 296.542 103.458C281.544 88.4604 261.21 80.0241 240 80C237.878 80 235.843 80.8429 234.343 82.3431C232.843 83.8434 232 85.8783 232 88C232 123.29 206.879 152 176 152H104C101.878 152 99.8434 152.843 98.3432 154.343C96.8429 155.843 96 157.878 96 160V160.805C90.1965 161.991 84.7305 164.457 80 168.022V160C80.0384 126.064 93.5364 93.5291 117.533 69.5327C141.529 45.5364 174.064 32.0384 208 32V32ZM128.805 184H112V168H136.022C132.457 172.731 129.991 178.196 128.805 184V184ZM168 168C172.747 168 177.387 169.408 181.334 172.045C185.28 174.682 188.357 178.43 190.173 182.816C191.99 187.201 192.465 192.027 191.539 196.682C190.613 201.338 188.327 205.614 184.971 208.971C181.614 212.327 177.338 214.613 172.682 215.539C168.027 216.465 163.201 215.99 158.816 214.173C154.43 212.357 150.682 209.28 148.045 205.334C145.408 201.387 144 196.747 144 192C144.007 185.637 146.538 179.537 151.038 175.038C155.537 170.538 161.637 168.007 168 168ZM80 200C80.0064 195.039 81.5476 190.201 84.4122 186.151C87.2768 182.1 91.3245 179.035 96 177.376V192C95.994 202.751 97.5406 213.446 100.592 223.754C94.8793 222.927 89.6549 220.072 85.874 215.71C82.093 211.349 80.008 205.772 80 200V200ZM112.336 200H128.805C130.036 206.072 132.661 211.775 136.473 216.66C140.284 221.545 145.179 225.477 150.77 228.147C156.361 230.817 162.496 232.152 168.69 232.046C174.885 231.94 180.971 230.397 186.467 227.537C191.964 224.678 196.721 220.581 200.364 215.569C204.007 210.557 206.435 204.767 207.458 198.657C208.481 192.546 208.071 186.281 206.259 180.356C204.448 174.431 201.284 169.008 197.019 164.514C224.155 155.292 244.527 128.708 247.593 96.466C263.132 98.3406 277.448 105.837 287.839 117.541C298.23 129.246 303.979 144.348 304 160V184H287.2C285.217 174.288 279.699 165.657 271.715 159.782C263.731 153.907 253.85 151.206 243.988 152.203C234.125 153.199 224.984 157.822 218.337 165.175C211.689 172.528 208.008 182.087 208.008 192C208.008 201.913 211.689 211.472 218.337 218.825C224.984 226.178 234.125 230.801 243.988 231.797C253.85 232.794 263.731 230.093 271.715 224.218C279.699 218.343 285.217 209.712 287.2 200H303.669C301.657 223.987 290.706 246.343 272.988 262.638C255.27 278.932 232.077 287.975 208.005 287.975C183.933 287.975 160.74 278.932 143.022 262.638C125.304 246.343 114.353 223.987 112.341 200H112.336ZM272 192C272 196.747 270.592 201.387 267.955 205.334C265.318 209.28 261.57 212.357 257.184 214.173C252.799 215.99 247.973 216.465 243.318 215.539C238.662 214.613 234.386 212.327 231.029 208.971C227.673 205.614 225.387 201.338 224.461 196.682C223.535 192.027 224.01 187.201 225.827 182.816C227.643 178.43 230.72 174.682 234.666 172.045C238.613 169.408 243.253 168 248 168C254.363 168.007 260.463 170.538 264.962 175.038C269.462 179.537 271.993 185.637 272 192V192ZM64 328C64.0072 321.637 66.538 315.537 71.0373 311.037C75.5367 306.538 81.637 304.007 88 304H144V344C144 345.486 144.414 346.942 145.195 348.206C145.976 349.47 147.093 350.491 148.422 351.155C149.751 351.82 151.239 352.101 152.718 351.968C154.198 351.834 155.611 351.291 156.8 350.4L200 318V480H144V440C144 437.878 143.157 435.843 141.657 434.343C140.157 432.843 138.122 432 136 432H108.944L64 342.112V328ZM64 377.888L92.521 434.929C88.7345 436.994 85.5737 440.04 83.3705 443.747C81.1673 447.455 80.0031 451.687 80 456V472C79.9989 474.726 80.4643 477.431 81.376 480H64V377.888ZM104 480C101.879 479.998 99.8456 479.154 98.3458 477.654C96.846 476.154 96.0024 474.121 96 472V456C96.0024 453.879 96.846 451.846 98.3458 450.346C99.8456 448.846 101.879 448.002 104 448H128V480H104ZM256 480V352H352V480H256ZM432 440V480H368V352H464V432H440C437.878 432 435.843 432.843 434.343 434.343C432.843 435.843 432 437.878 432 440ZM480 472C479.998 474.121 479.154 476.154 477.654 477.654C476.154 479.154 474.121 479.998 472 480H448V448H472C474.121 448.002 476.154 448.846 477.654 450.346C479.154 451.846 479.998 453.879 480 456V472Z" fill="#D5622C"/>
<path d="M227.562 241.344C214.217 250.244 201.783 250.244 188.438 241.344C187.564 240.755 186.582 240.344 185.549 240.135C184.516 239.926 183.451 239.923 182.417 240.127C181.383 240.331 180.399 240.738 179.522 241.323C178.646 241.908 177.893 242.661 177.308 243.538C176.724 244.415 176.318 245.399 176.115 246.434C175.911 247.468 175.915 248.532 176.124 249.566C176.333 250.599 176.745 251.58 177.335 252.454C177.925 253.327 178.682 254.076 179.562 254.656C188.862 260.856 198.433 263.956 208 263.956C217.567 263.956 227.136 260.856 236.438 254.656C238.191 253.474 239.404 251.646 239.813 249.571C240.222 247.497 239.794 245.345 238.621 243.586C237.448 241.826 235.626 240.603 233.554 240.183C231.482 239.763 229.327 240.18 227.562 241.344Z" fill="#D5622C"/>
<path d="M248 200C252.418 200 256 196.418 256 192C256 187.582 252.418 184 248 184C243.582 184 240 187.582 240 192C240 196.418 243.582 200 248 200Z" fill="#D5622C"/>
<path d="M168 200C172.418 200 176 196.418 176 192C176 187.582 172.418 184 168 184C163.582 184 160 187.582 160 192C160 196.418 163.582 200 168 200Z" fill="#D5622C"/>
</svg>
