<svg width="512" height="512" viewBox="0 0 512 512" fill="none" xmlns="http://www.w3.org/2000/svg">
<g clip-path="url(#clip0)">
<path d="M68.0453 45.4747C72.1985 45.4747 75.5638 42.1085 75.5638 37.9563V20.3159C75.5638 17.4138 77.9246 15.053 80.8277 15.053H130.448C133.351 15.053 135.712 17.4138 135.712 20.3159V37.9563C135.712 42.1085 139.077 45.4747 143.23 45.4747C147.383 45.4747 150.749 42.1085 150.749 37.9563V20.3159C150.749 9.12243 141.641 0.0160522 130.448 0.0160522H80.8277C69.6342 0.0160522 60.5269 9.12243 60.5269 20.3159V37.9563C60.5269 42.1085 63.8931 45.4747 68.0453 45.4747V45.4747Z" fill="#5A5A5A"/>
<path d="M491.701 354.457H164.153L170.713 347.897C173.649 344.961 173.649 340.2 170.713 337.265C167.777 334.329 163.017 334.327 160.08 337.265L150.749 346.595V173.289C150.749 169.137 147.384 165.77 143.23 165.77C139.077 165.77 135.712 169.137 135.712 173.289V361.632L125.04 372.303C122.103 375.239 122.103 380 125.04 382.935C126.508 384.403 128.432 385.137 130.357 385.137C132.28 385.137 134.205 384.403 135.674 382.935L149.115 369.494H491.701C494.603 369.494 496.963 371.855 496.963 374.757V424.378C496.963 427.28 494.603 429.641 491.701 429.641H105.638C100.796 429.641 96.2218 428.484 92.1668 426.443L100.636 417.974C103.572 415.038 103.572 410.277 100.636 407.342C97.6984 404.406 92.9387 404.406 90.0025 407.342L80.8179 416.525C77.5068 411.694 75.564 405.854 75.564 399.568V254.351C75.564 250.199 72.1988 246.832 68.0456 246.832C63.8924 246.832 60.5271 250.199 60.5271 254.351V399.568C60.5271 410.005 64.0999 419.618 70.0735 427.27L54.9624 442.381C52.0262 445.317 52.0262 450.078 54.9624 453.013C56.431 454.482 58.3548 455.215 60.2795 455.215C62.2032 455.215 64.1279 454.482 65.5965 453.013L81.1718 437.438C88.2251 442.011 96.6238 444.679 105.638 444.679H491.701C502.894 444.679 512 435.572 512 424.379V374.758C512 363.564 502.894 354.457 491.701 354.457V354.457Z" fill="#5A5A5A"/>
<path d="M60.5269 173.289V222.309C60.5269 226.461 63.8921 229.828 68.0453 229.828C72.1985 229.828 75.5638 226.461 75.5638 222.309V173.289C75.5638 169.137 72.1985 165.77 68.0453 165.77C63.8921 165.77 60.5269 169.137 60.5269 173.289Z" fill="#5A5A5A"/>
<path d="M20.3312 150.733H346.609L335.273 162.069C332.337 165.005 332.337 169.766 335.273 172.701C336.742 174.169 338.666 174.904 340.59 174.904C342.514 174.904 344.439 174.17 345.907 172.701L354.473 164.135V246.524C354.473 250.676 357.838 254.042 361.992 254.042C366.145 254.042 369.51 250.676 369.51 246.524V149.098L380.946 137.662C383.882 134.726 383.882 129.965 380.946 127.03C378.009 124.094 373.249 124.094 370.313 127.03L361.647 135.696H20.3312C17.428 135.696 15.0672 133.336 15.0672 130.434V80.8116C15.0672 77.9095 17.428 75.5487 20.3312 75.5487H399.583C405.869 75.5487 411.709 77.4904 416.541 80.8016L405.351 91.9911C402.415 94.9273 402.415 99.688 405.351 102.623C406.82 104.091 408.745 104.826 410.668 104.826C412.592 104.826 414.517 104.092 415.985 102.623L426.459 92.1494C428.501 96.2054 429.658 100.78 429.658 105.622V331.901C429.658 336.053 433.023 339.419 437.176 339.419C441.33 339.419 444.695 336.053 444.695 331.901V105.623C444.695 96.6084 442.026 88.2098 437.453 81.1554L451.023 67.5851C453.96 64.6489 453.96 59.8882 451.022 56.953C448.087 54.0157 443.326 54.0167 440.39 56.953L427.285 70.0582C419.633 64.0845 410.021 60.5127 399.584 60.5127H20.3312C9.13765 60.5127 0.0302734 69.6191 0.0302734 80.8126V130.434C0.0312759 141.626 9.13765 150.733 20.3312 150.733V150.733Z" fill="#5A5A5A"/>
<path d="M361.992 271.046C357.838 271.046 354.473 274.412 354.473 278.564V331.902C354.473 336.054 357.838 339.42 361.992 339.42C366.145 339.42 369.51 336.054 369.51 331.902V278.564C369.51 274.412 366.144 271.046 361.992 271.046Z" fill="#5A5A5A"/>
<path d="M437.176 459.716C433.023 459.716 429.658 463.082 429.658 467.234V491.685C429.658 494.587 427.297 496.948 424.394 496.948H374.773C371.871 496.948 369.51 494.587 369.51 491.685V467.234C369.51 463.082 366.145 459.716 361.992 459.716C357.838 459.716 354.473 463.082 354.473 467.234V491.685C354.473 502.879 363.58 511.985 374.773 511.985H424.394C435.587 511.985 444.695 502.879 444.695 491.685V467.234C444.695 463.082 441.329 459.716 437.176 459.716Z" fill="#5A5A5A"/>
<path d="M19.9232 477.419L2.20265 495.141C-0.733565 498.077 -0.733565 502.838 2.20265 505.773C3.67126 507.24 5.59599 507.975 7.51971 507.975C9.44344 507.975 11.3682 507.241 12.8368 505.773L30.5583 488.051C33.4945 485.115 33.4945 480.354 30.5583 477.419C27.6201 474.484 22.8604 474.484 19.9232 477.419V477.419Z" fill="#5A5A5A"/>
<path d="M300.235 197.108L265.196 232.147C262.26 235.084 262.26 239.844 265.196 242.78C266.664 244.248 268.588 244.982 270.513 244.982C272.437 244.982 274.361 244.248 275.83 242.78L310.869 207.74C313.805 204.804 313.805 200.044 310.869 197.108C307.933 194.173 303.173 194.171 300.235 197.108V197.108Z" fill="#5A5A5A"/>
<path d="M230.157 267.185L195.119 302.225C192.182 305.161 192.182 309.922 195.119 312.857C196.587 314.324 198.511 315.059 200.436 315.059C202.359 315.059 204.284 314.325 205.753 312.857L240.791 277.818C243.727 274.881 243.727 270.121 240.791 267.185C237.853 264.249 233.093 264.25 230.157 267.185Z" fill="#5A5A5A"/>
<path d="M480.746 34.7484C482.67 34.7484 484.595 34.0146 486.063 32.546L503.785 14.8245C506.721 11.8882 506.721 7.12755 503.785 4.19233C500.848 1.25612 496.088 1.25612 493.152 4.19233L475.43 21.9139C472.494 24.8501 472.494 29.6108 475.43 32.546C476.898 34.0136 478.823 34.7484 480.746 34.7484V34.7484Z" fill="#5A5A5A"/>
</g>
<defs>
<clipPath id="clip0">
<rect width="512" height="512" fill="white"/>
</clipPath>
</defs>
</svg>
